<svg xmlns="http://www.w3.org/2000/svg" width="59.755" height="60" viewBox="0 0 59.755 60">
  <g id="fav" transform="translate(-21.57 -0.5)">
    <path id="Path_1979" data-name="Path 1979" d="M31.913,53a30.27,30.27,0,0,0,35.947,2.929C49.509,49.886,36.3,51.971,31.913,53ZM81.325,23.22a29.948,29.948,0,0,0-3.089-7.883,527.836,527.836,0,0,0-41.8,33.1A226.476,226.476,0,0,1,81.325,23.22ZM77.658,46.085a30.268,30.268,0,0,0,3.6-8.6,117.758,117.758,0,0,0-45.279,12.96C48.741,45.238,67.463,45.516,77.658,46.085Zm-43.329.936c12.722-13.262,24.871-29.266,34-42.214a30.129,30.129,0,0,0-8.249-3.738A227.188,227.188,0,0,1,34.035,47.282ZM46.014.5a29.944,29.944,0,0,0-8.431,3c.605,10.6.728,31.219-5.24,44.254A117.949,117.949,0,0,0,46.014.5ZM21.57,30.216a30.186,30.186,0,0,0,8.588,21.119c.886-3.305,3.949-17.756-3.219-38.328A30.141,30.141,0,0,0,21.57,30.216Z" fill="#1caed0"/>
  </g>
</svg>
